<svg xmlns="http://www.w3.org/2000/svg" version="1.1" xmlns:xlink="http://www.w3.org/1999/xlink" xmlns:svgjs="http://svgjs.dev/svgjs" width="128" height="128" viewBox="0 0 128 128"><g transform="matrix(0.8046875,0,0,0.8046875,12.456199190638102,4.755253416303162)"><svg viewBox="0 0 82 95" data-background-color="#fafafa" preserveAspectRatio="xMidYMid meet" height="148" width="128" xmlns="http://www.w3.org/2000/svg" xmlns:xlink="http://www.w3.org/1999/xlink"><g id="tight-bounds" transform="matrix(1,0,0,1,0.03487054725898986,-0.24100508673880938)"><svg viewBox="0 0 81.92980423415425 95.481" height="95.481" width="81.92980423415425"><g><svg viewBox="0 0 81.92980423415425 95.481" height="95.481" width="81.92980423415425"><g><svg viewBox="0 0 81.92980423415425 95.481" height="95.481" width="81.92980423415425"><g id="textblocktransform"><svg viewBox="0 0 81.92980423415425 95.481" height="95.481" width="81.92980423415425" id="textblock"><g><svg viewBox="0 0 81.92980423415425 95.481" height="95.481" width="81.92980423415425"><g><svg viewBox="0 0 81.92980423415425 95.481" height="95.481" width="81.92980423415425"><g><svg xmlns="http://www.w3.org/2000/svg" viewBox="4 2 24.026088888888893 28.000005793296907" x="0" y="0" height="95.481" width="81.92980423415425" class="icon-icon-0" id="icon-0"><path fill-rule="evenodd" clip-rule="evenodd" d="M9 2C6.239 2 4 4.239 4 7V23C4 25.761 6.239 28 9 28H10C10.552 28 11 27.552 11 27 11 26.448 10.552 26 10 26H9C7.343 26 6 24.657 6 23 6 21.87 6.625 20.886 7.548 20.374 7.942 20.171 8.42 20.034 9 20H26V26H24C23.448 26 23 26.448 23 27 23 27.552 23.448 28 24 28H27C27.552 28 28 27.552 28 27V19.09C28.059 18.69 28 18.2 28 18.2V5C28 3.343 26.657 2 25 2H9Z" fill="#e77917" data-fill-palette-color="accent"></path><path fill-rule="evenodd" clip-rule="evenodd" d="M13 23C13 22.448 13.448 22 14 22H20C20.552 22 21 22.448 21 23V29C21 29.369 20.797 29.708 20.472 29.882 20.147 30.056 19.752 30.037 19.445 29.832L17 28.202 14.555 29.832C14.248 30.037 13.853 30.056 13.528 29.882 13.203 29.708 13 29.369 13 29V23Z" fill="#e77917" data-fill-palette-color="accent"></path></svg></g></svg></g></svg></g></svg></g></svg></g></svg></g><defs></defs></svg><rect width="81.92980423415425" height="95.481" fill="none" stroke="none" visibility="hidden"></rect></g></svg></g></svg>